# xmcd CD database file
#
# Track frame offsets:
#	150
#	60251
#	117220
#	176005
#
# Disc length: 3057 seconds
#
# Revision: 1
# Processed by: cddbd v1.4PL0 Copyright (c) Steve Scherf et al.
# Submitted via: CDex 1.51
#
DISCID=2a0bef04
DTITLE=Muziek Natuur - De Waddenzee
DYEAR=1900
DGENRE=New Age
TTITLE0=Vloed op het wad
TTITLE1=Bij de strekdam
TTITLE2=Langs de waddendijk
TTITLE3=Naar de zeehonden
EXTD=
EXTT0=
EXTT1=
EXTT2=
EXTT3=
PLAYORDER=
